<?xml version="1.0" encoding="utf-8"?>
<!-- Svg Vector Icons : http://www.onlinewebfonts.com/icon -->
<!DOCTYPE svg PUBLIC "-//W3C//DTD SVG 1.1//EN" "http://www.w3.org/Graphics/SVG/1.1/DTD/svg11.dtd">
<svg version="1.1" xmlns="http://www.w3.org/2000/svg" xmlns:xlink="http://www.w3.org/1999/xlink" x="0px" y="0px" viewBox="0 0 1000 1000" enable-background="new 0 0 1000 1000" xml:space="preserve">
<metadata> Svg Vector Icons : http://www.onlinewebfonts.com/icon </metadata>
<g><g transform="translate(0.000000,511.000000) scale(0.100000,-0.100000)"><path d="M4569.1,5000.4C3129.3,4857,1886,4151.8,1037.4,3000.8C579.8,2380.1,277.3,1645.5,145.7,836.2c-60.9-381.1-60.9-1050.8,0-1443.7c231.8-1481,1064.6-2726.3,2341.4-3496.3c540.2-324.1,1141.2-540.2,1797.3-642.3c390.9-60.9,1043-60.9,1433.9,0c652.1,102.1,1227.6,306.4,1775.7,630.5c1119.6,661.9,1919,1716.7,2251,2969.9C9862.7-699.8,9900-399.3,9900,109.5s-37.3,809.3-155.2,1255.1C9242,3260.1,7666.7,4670.4,5724,4963.1C5427.5,5006.3,4830.3,5025.9,4569.1,5000.4z M5671,2680.6c361.4-137.5,603-379.1,740.5-740.5c51.1-129.6,51.1-137.5,58.9-773.9l5.9-644.3h82.5c112,0,210.2-57,263.2-149.3l45.2-76.6V-1018c0-1300.3,0-1314.1-41.2-1386.7c-23.6-41.3-74.7-92.3-115.9-115.9c-74.6-41.2-80.5-41.2-1699.1-41.2H3384.7l-82.5,49.1c-155.2,90.4-147.3,17.7-147.3,1490.8c0,1274.8,2,1312.1,39.3,1386.7c45.2,90.4,159.1,157.1,263.2,157.1h68.8l5.9,644.3c7.9,632.5,7.9,644.3,57,771.9c159.1,412.5,483.2,697.3,891.7,783.7c43.2,9.8,300.5,15.7,569.6,11.8C5521.7,2729.7,5547.3,2727.8,5671,2680.6z"/><path d="M4608.4,2081.5c-269.1-72.7-467.5-275-538.2-548c-23.6-88.4-31.4-222-31.4-563.7V522h962.5h962.5v457.7c0,328-7.9,485.2-27.5,559.8c-68.8,251.4-265.2,455.7-514.6,534.3c-106.1,31.4-180.7,39.3-418.4,37.3C4816.6,2111,4679.1,2101.2,4608.4,2081.5z"/></g></g>
</svg>